<?xml version="1.0" encoding="UTF-8" standalone="no"?>
<!DOCTYPE svg PUBLIC "-//W3C//DTD SVG 1.1//EN"
 "http://www.w3.org/Graphics/SVG/1.1/DTD/svg11.dtd">
<!-- Generated by graphviz version 2.36.0 (20140111.2315)
 -->
<!-- Title: shared_integer Pages: 1 -->
<svg width="712pt" height="120pt"
 viewBox="0.00 0.00 712.00 120.00" xmlns="http://www.w3.org/2000/svg" xmlns:xlink="http://www.w3.org/1999/xlink">
<g id="graph0" class="graph" transform="scale(1 1) rotate(0) translate(4 116)">
<title>shared_integer</title>
<polygon fill="white" stroke="none" points="-4,4 -4,-116 708,-116 708,4 -4,4"/>
<!-- list_a -->
<g id="node1" class="node"><title>list_a</title>
<polygon fill="#a8e270" stroke="black" points="237,-75 237,-111 467,-111 467,-75 237,-75"/>
<text text-anchor="middle" x="264.5" y="-89.3" font-family="'/usr/share/fonts/truetype/wqy/wqy-microhei.ttc'" font-size="14.00">列表A</text>
<polyline fill="none" stroke="black" points="292,-75 292,-111 "/>
<text text-anchor="middle" x="336.5" y="-89.3" font-family="'/usr/share/fonts/truetype/wqy/wqy-microhei.ttc'" font-size="14.00">20130101</text>
<polyline fill="none" stroke="black" points="381,-75 381,-111 "/>
<text text-anchor="middle" x="393" y="-89.3" font-family="'/usr/share/fonts/truetype/wqy/wqy-microhei.ttc'" font-size="14.00">*</text>
<polyline fill="none" stroke="black" points="405,-75 405,-111 "/>
<text text-anchor="middle" x="436" y="-89.3" font-family="'/usr/share/fonts/truetype/wqy/wqy-microhei.ttc'" font-size="14.00">10086</text>
</g>
<!-- sl -->
<g id="node4" class="node"><title>sl</title>
<polygon fill="lightgrey" stroke="black" points="0,-1 0,-37 580,-37 580,-1 0,-1"/>
<text text-anchor="middle" x="65.5" y="-15.3" font-family="'/usr/share/fonts/truetype/wqy/wqy-microhei.ttc'" font-size="14.00">共享整数对象数组</text>
<polyline fill="none" stroke="black" points="131,-1 131,-37 "/>
<text text-anchor="middle" x="144" y="-15.3" font-family="'/usr/share/fonts/truetype/wqy/wqy-microhei.ttc'" font-size="14.00">0</text>
<polyline fill="none" stroke="black" points="157,-1 157,-37 "/>
<text text-anchor="middle" x="172" y="-15.3" font-family="'/usr/share/fonts/truetype/wqy/wqy-microhei.ttc'" font-size="14.00">...</text>
<polyline fill="none" stroke="black" points="187,-1 187,-37 "/>
<text text-anchor="middle" x="204.5" y="-15.3" font-family="'/usr/share/fonts/truetype/wqy/wqy-microhei.ttc'" font-size="14.00">81</text>
<polyline fill="none" stroke="black" points="222,-1 222,-37 "/>
<text text-anchor="middle" x="237" y="-15.3" font-family="'/usr/share/fonts/truetype/wqy/wqy-microhei.ttc'" font-size="14.00">...</text>
<polyline fill="none" stroke="black" points="252,-1 252,-37 "/>
<text text-anchor="middle" x="274" y="-15.3" font-family="'/usr/share/fonts/truetype/wqy/wqy-microhei.ttc'" font-size="14.00">100</text>
<polyline fill="none" stroke="black" points="296,-1 296,-37 "/>
<text text-anchor="middle" x="318" y="-15.3" font-family="'/usr/share/fonts/truetype/wqy/wqy-microhei.ttc'" font-size="14.00">123</text>
<polyline fill="none" stroke="black" points="340,-1 340,-37 "/>
<text text-anchor="middle" x="355" y="-15.3" font-family="'/usr/share/fonts/truetype/wqy/wqy-microhei.ttc'" font-size="14.00">...</text>
<polyline fill="none" stroke="black" points="370,-1 370,-37 "/>
<text text-anchor="middle" x="392" y="-15.3" font-family="'/usr/share/fonts/truetype/wqy/wqy-microhei.ttc'" font-size="14.00">300</text>
<polyline fill="none" stroke="black" points="414,-1 414,-37 "/>
<text text-anchor="middle" x="429" y="-15.3" font-family="'/usr/share/fonts/truetype/wqy/wqy-microhei.ttc'" font-size="14.00">...</text>
<polyline fill="none" stroke="black" points="444,-1 444,-37 "/>
<text text-anchor="middle" x="466" y="-15.3" font-family="'/usr/share/fonts/truetype/wqy/wqy-microhei.ttc'" font-size="14.00">999</text>
<polyline fill="none" stroke="black" points="488,-1 488,-37 "/>
<text text-anchor="middle" x="503" y="-15.3" font-family="'/usr/share/fonts/truetype/wqy/wqy-microhei.ttc'" font-size="14.00">...</text>
<polyline fill="none" stroke="black" points="518,-1 518,-37 "/>
<text text-anchor="middle" x="549" y="-15.3" font-family="'/usr/share/fonts/truetype/wqy/wqy-microhei.ttc'" font-size="14.00">10000</text>
</g>
<!-- list_a&#45;&gt;sl -->
<g id="edge1" class="edge"><title>list_a:300&#45;&gt;sl:300</title>
<path fill="none" stroke="#a8e270" stroke-width="2" d="M393,-74C393,-61.9954 392.438,-56.7512 392.156,-48.1267"/>
<polygon fill="#a8e270" stroke="#a8e270" stroke-width="2" points="395.654,-47.9448 392,-38 388.655,-48.0528 395.654,-47.9448"/>
</g>
<!-- list_b -->
<g id="node2" class="node"><title>list_b</title>
<polygon fill="#95bbe3" stroke="black" points="485.5,-75 485.5,-111 704.5,-111 704.5,-75 485.5,-75"/>
<text text-anchor="middle" x="513" y="-89.3" font-family="'/usr/share/fonts/truetype/wqy/wqy-microhei.ttc'" font-size="14.00">列表B</text>
<polyline fill="none" stroke="black" points="540.5,-75 540.5,-111 "/>
<text text-anchor="middle" x="552.5" y="-89.3" font-family="'/usr/share/fonts/truetype/wqy/wqy-microhei.ttc'" font-size="14.00">*</text>
<polyline fill="none" stroke="black" points="564.5,-75 564.5,-111 "/>
<text text-anchor="middle" x="622.5" y="-89.3" font-family="'/usr/share/fonts/truetype/wqy/wqy-microhei.ttc'" font-size="14.00">12345678910</text>
<polyline fill="none" stroke="black" points="680.5,-75 680.5,-111 "/>
<text text-anchor="middle" x="692.5" y="-89.3" font-family="'/usr/share/fonts/truetype/wqy/wqy-microhei.ttc'" font-size="14.00">*</text>
</g>
<!-- list_b&#45;&gt;sl -->
<g id="edge2" class="edge"><title>list_b:81&#45;&gt;sl:81</title>
<path fill="none" stroke="#95bbe3" stroke-width="2" d="M552,-74C552,-0.0501674 237.155,-104.547 206.408,-48.0237"/>
<polygon fill="#95bbe3" stroke="#95bbe3" stroke-width="2" points="209.739,-46.9058 204,-38 202.933,-48.5409 209.739,-46.9058"/>
</g>
<!-- list_b&#45;&gt;sl -->
<g id="edge3" class="edge"><title>list_b:999&#45;&gt;sl:999</title>
<path fill="none" stroke="#95bbe3" stroke-width="2" d="M693,-74C693,24.359 482.535,-128.031 466.915,-48.2825"/>
<polygon fill="#95bbe3" stroke="#95bbe3" stroke-width="2" points="470.372,-47.6505 466,-38 463.4,-48.2708 470.372,-47.6505"/>
</g>
<!-- list_c -->
<g id="node3" class="node"><title>list_c</title>
<polygon fill="#fadcad" stroke="black" points="52.5,-75 52.5,-111 219.5,-111 219.5,-75 52.5,-75"/>
<text text-anchor="middle" x="80" y="-89.3" font-family="'/usr/share/fonts/truetype/wqy/wqy-microhei.ttc'" font-size="14.00">列表C</text>
<polyline fill="none" stroke="black" points="107.5,-75 107.5,-111 "/>
<text text-anchor="middle" x="119.5" y="-89.3" font-family="'/usr/share/fonts/truetype/wqy/wqy-microhei.ttc'" font-size="14.00">*</text>
<polyline fill="none" stroke="black" points="131.5,-75 131.5,-111 "/>
<text text-anchor="middle" x="143.5" y="-89.3" font-family="'/usr/share/fonts/truetype/wqy/wqy-microhei.ttc'" font-size="14.00">*</text>
<polyline fill="none" stroke="black" points="155.5,-75 155.5,-111 "/>
<text text-anchor="middle" x="175.5" y="-89.3" font-family="'/usr/share/fonts/truetype/wqy/wqy-microhei.ttc'" font-size="14.00">&#45;25</text>
<polyline fill="none" stroke="black" points="195.5,-75 195.5,-111 "/>
<text text-anchor="middle" x="207.5" y="-89.3" font-family="'/usr/share/fonts/truetype/wqy/wqy-microhei.ttc'" font-size="14.00">*</text>
</g>
<!-- list_c&#45;&gt;sl -->
<g id="edge4" class="edge"><title>list_c:100&#45;&gt;sl:100</title>
<path fill="none" stroke="#fadcad" stroke-width="2" d="M119,-74C119,-7.14509 257.51,-97.7164 272.66,-48.0799"/>
<polygon fill="#fadcad" stroke="#fadcad" stroke-width="2" points="276.152,-48.374 274,-38 269.213,-47.4515 276.152,-48.374"/>
</g>
<!-- list_c&#45;&gt;sl -->
<g id="edge5" class="edge"><title>list_c:0&#45;&gt;sl:0</title>
<path fill="none" stroke="#fadcad" stroke-width="2" d="M144,-74C144,-62 144,-56.75 144,-48.125"/>
<polygon fill="#fadcad" stroke="#fadcad" stroke-width="2" points="147.5,-48 144,-38 140.5,-48 147.5,-48"/>
</g>
<!-- list_c&#45;&gt;sl -->
<g id="edge6" class="edge"><title>list_c:123&#45;&gt;sl:123</title>
<path fill="none" stroke="#fadcad" stroke-width="2" d="M208,-74C208,-26.5783 301.484,-79.7125 316.091,-48.0027"/>
<polygon fill="#fadcad" stroke="#fadcad" stroke-width="2" points="319.563,-48.4789 318,-38 312.687,-47.1664 319.563,-48.4789"/>
</g>
</g>
</svg>
